<svg width="2633" height="15" viewBox="0 0 2633 15" fill="none" xmlns="http://www.w3.org/2000/svg">
<path d="M2 7.5C34.5 -11.5526 34.5 26.5526 67 7.5C99.5 -11.5526 99.5 26.5526 132 7.5C164.5 -11.5526 164.5 26.5526 197 7.5C229.5 -11.5526 229.5 26.5526 262 7.5C294.5 -11.5526 294.5 26.5526 327 7.5C359.5 -11.5526 359.5 26.5526 392 7.5C424.5 -11.5526 424.5 26.5526 457 7.5C489.5 -11.5526 489.5 26.5526 522 7.5C554.5 -11.5526 554.5 26.5526 587 7.5C619.5 -11.5526 619.5 26.5526 652 7.5C684.5 -11.5526 684.5 26.5526 717 7.5C749.5 -11.5526 749.5 26.5526 782 7.5C814.5 -11.5526 814.5 26.5526 847 7.5C879.5 -11.5526 879.5 26.5526 912 7.5C944.5 -11.5526 944.5 26.5526 977 7.5C1009.5 -11.5526 1009.5 26.5526 1042 7.5C1074.5 -11.5526 1074.5 26.5526 1107 7.5C1139.5 -11.5526 1139.5 26.5526 1172 7.5C1204.5 -11.5526 1204.5 26.5526 1237 7.5C1269.5 -11.5526 1269.5 26.5526 1302 7.5C1334.5 -11.5526 1334.5 26.5526 1367 7.5C1399.5 -11.5526 1399.5 26.5526 1432 7.5C1464.5 -11.5526 1464.5 26.5526 1497 7.5C1529.5 -11.5526 1529.5 26.5526 1562 7.5C1594.5 -11.5526 1594.5 26.5526 1627 7.5C1659.5 -11.5526 1659.5 26.5526 1692 7.5C1724.5 -11.5526 1724.5 26.5526 1757 7.5C1789.5 -11.5526 1789.5 26.5526 1822 7.5C1854.5 -11.5526 1854.5 26.5526 1887 7.5C1919.5 -11.5526 1919.5 26.5526 1952 7.5C1984.5 -11.5526 1984.5 26.5526 2017 7.5C2049.5 -11.5526 2049.5 26.5526 2082 7.5C2114.5 -11.5526 2114.5 26.5526 2147 7.5C2179.5 -11.5526 2179.5 26.5526 2212 7.5C2244.5 -11.5526 2244.5 26.5526 2277 7.5C2309.5 -11.5526 2309.5 26.5526 2342 7.5C2374.5 -11.5526 2374.5 26.5526 2407 7.5C2439.5 -11.5526 2439.5 26.5526 2472 7.5C2504.5 -11.5526 2504.5 26.5526 2537 7.5C2569.5 -11.5526 2569.5 26.5526 2602 7.5C2634.5 -11.5526 2634.5 26.5526 2667 7.5C2699.5 -11.5526 2699.5 26.5526 2732 7.5C2764.5 -11.5526 2764.5 26.5526 2797 7.5C2829.5 -11.5526 2829.5 26.5526 2862 7.5" stroke="#595552" stroke-width="4"/>
</svg>
