<svg width="1431" height="15" viewBox="0 0 1431 15" fill="none" xmlns="http://www.w3.org/2000/svg">
<path d="M1 7.5C33.5 -11.5526 33.5 26.5526 66 7.5C98.5 -11.5526 98.5 26.5526 131 7.5C163.5 -11.5526 163.5 26.5526 196 7.5C228.5 -11.5526 228.5 26.5526 261 7.5C293.5 -11.5526 293.5 26.5526 326 7.5C358.5 -11.5526 358.5 26.5526 391 7.5C423.5 -11.5526 423.5 26.5526 456 7.5C488.5 -11.5526 488.5 26.5526 521 7.5C553.5 -11.5526 553.5 26.5526 586 7.5C618.5 -11.5526 618.5 26.5526 651 7.5C683.5 -11.5526 683.5 26.5526 716 7.5C748.5 -11.5526 748.5 26.5526 781 7.5C813.5 -11.5526 813.5 26.5526 846 7.5C878.5 -11.5526 878.5 26.5526 911 7.5C943.5 -11.5526 943.5 26.5526 976 7.5C1008.5 -11.5526 1008.5 26.5526 1041 7.5C1073.5 -11.5526 1073.5 26.5526 1106 7.5C1138.5 -11.5526 1138.5 26.5526 1171 7.5C1203.5 -11.5526 1203.5 26.5526 1236 7.5C1268.5 -11.5526 1268.5 26.5526 1301 7.5C1333.5 -11.5526 1333.5 26.5526 1366 7.5C1398.5 -11.5526 1398.5 26.5526 1431 7.5" stroke="#595552" stroke-width="4"/>
</svg>
